<svg xmlns="http://www.w3.org/2000/svg" version="1.31" xmlns:xlink="http://www.w3.org/1999/xlink" xmlns:svgjs="http://svgjs.com/svgjs" height="188.60000610351562" width="179.01531982421875"><defs id="test"></defs><g id="test" rel="g" name="Hello" xmlns:name="hello" transform="translate(89.50765991210938,188.60000610351562)" fill="#757575"><path d="test" fill="#757575" style="fill: rgb(93, 93, 93);"></path></g><g id="test" rel="g" name="logo" xmlns:name="logo" transform="translate(-10.600019454956055,-13.000005722045898) scale(2)" fill="#757575"><path d="M73.1,34L73.1,34c-0.3-0.3-0.7-0.2-0.9,0l-9,10.8C63,45,62.6,45,62.3,44.8c-0.3-0.2-0.4-0.6-0.2-0.8l9-10.8  c0.2-0.3,0.2-0.7-0.1-0.9l0,0c-0.3-0.2-0.7-0.2-0.9,0.1l-9,10.8c-0.2,0.2-0.5,0.2-0.8-0.1c-0.3-0.2-0.4-0.6-0.2-0.8l9-10.8  c0.2-0.3,0.2-0.7-0.1-0.9l0,0c-0.3-0.2-0.7-0.2-0.9,0.1l-9,10.8c-0.2,0.2-0.5,0.2-0.8-0.1c-0.3-0.2-0.4-0.6-0.2-0.8l9-10.8  c0.2-0.3,0.2-0.7-0.1-0.9l-0.1,0c-0.2-0.2-0.6-0.2-0.8,0L55.3,39.8c-1.9,2.3-1.8,5.1,0,7.3l0.3,0.2C48.2,54.9,34.8,70,34.2,70.7  c-0.8,1-0.7,2.5,0.3,3.3c1,0.8,2.5,0.7,3.3-0.3c0.6-0.8,13.1-16.5,19.2-25l0.3,0.2c2.5,1.3,5.3,1,7.3-1.3l8.7-12.8  C73.4,34.6,73.3,34.2,73.1,34z" fill="#757575" style="fill: rgb(093, 093, 093);"></path><path d="M29.3,30c-1.4,1.2-0.6,2.5,1.3,4.9l32.1,38.3c1.3,1.5,2.9,1.9,4.3,0.8c1.4-1.2,0.9-2.7-0.3-4.1c0,0-13.4-14-15.2-15.8  c-0.6-0.6-1.6-0.9-1.7-1.1c-0.8-1.1,0.4-3.3,0-4c-1.5-2.9-5.3-7.5-7.4-9.6C37.4,34.2,30.7,28.8,29.3,30z" fill="#757575" style="fill: rgb(093, 093, 093);"></path><path d="M93.5,53.4c0.8,1.4,2,3.9,0.8,6.2c-1.5,2.9-6.2,9.1-8.1,12.1c0,1.8,0,3.9-1.8,4.1c0.1,1.4-0.6,3-1.5,3.8  c0,0-0.1,0.1-0.1,0.1c0,0,0,0.1,0,0.1c0,0.9-0.7,1.7-1.6,1.7c-0.1,0-0.3,0-0.4-0.1c-1,1.1-2.9,2.1-4.7,2.1c0.1,0.4-0.6,1.1-1.9,1.2  c-1.7,0.1-4.7,1.2-5.2,1.5c-3.3,1.7-6.4,5.3-8.8,5.8c-2.1,0.4-5-0.7-6.9-0.5c-0.6,1.1-1.9,1.8-3.3,1.8c-1.5,0-2.7-0.8-3.3-1.8  c-1.9-0.1-4.7,1-6.8,0.5c-2.3-0.5-5.5-4-8.8-5.8c-0.6-0.3-3.5-1.4-5.2-1.5c-1.3-0.1-2-0.8-1.9-1.2c-1.8,0-3.7-0.9-4.7-2.1  c-0.1,0-0.3,0.1-0.4,0.1c-0.9,0-1.6-0.8-1.6-1.7c0,0,0-0.1,0-0.1c0,0-0.1-0.1-0.1-0.1c-0.9-0.8-1.7-2.3-1.5-3.8  c-1.8-0.3-1.8-2.4-1.8-4.1c-1.8-2.9-6.6-9.2-8.1-12.1c-1.1-2.2,0.1-4.7,0.8-6.2c-0.8-0.5-1.3-1.7-1.3-3.2c0-1.6,0.7-2.9,1.6-3.3  c-0.7-1.3-2.4-4.1-1.1-6.7c1.5-2.9,6.2-9.1,8.1-12.1c0-1.8,0-3.9,1.8-4.1c-0.1-1.4,0.6-3,1.5-3.8c0,0,0.1-0.1,0.1-0.1  c0,0,0-0.1,0-0.1c0-0.9,0.7-1.7,1.6-1.7c0.1,0,0.3,0,0.4,0.1c1-1.1,2.9-2.1,4.7-2.1c-0.1-0.4,0.6-1.1,1.9-1.2  c1.7-0.1,4.7-1.2,5.2-1.5c3.3-1.7,6.4-5.3,8.8-5.8c2.1-0.4,4.9,0.6,6.8,0.5c0.6-1.1,1.9-1.8,3.3-1.8c1.5,0,2.7,0.8,3.3,1.8  c1.9,0.1,4.8-1,6.9-0.5c2.3,0.5,5.5,4,8.8,5.8c0.6,0.3,3.5,1.4,5.2,1.5c1.3,0.1,2,0.8,1.9,1.2c1.8,0,3.7,0.9,4.7,2.1  c0.1,0,0.3-0.1,0.4-0.1c0.9,0,1.6,0.8,1.6,1.7c0,0,0,0.1,0,0.1c0,0,0.1,0.1,0.1,0.1c0.9,0.8,1.7,2.3,1.5,3.8  c1.8,0.3,1.8,2.4,1.8,4.1c1.8,2.9,6.6,9.2,8.1,12.1c1.3,2.5-0.4,5.4-1.1,6.7c0.9,0.4,1.5,1.7,1.6,3.3C94.8,51.7,94.3,52.9,93.5,53.4  z M49.7,17.1c-18.9,0-34.2,14.7-34.2,32.9s15.3,32.9,34.2,32.9S83.8,68.1,83.8,50S68.6,17.1,49.7,17.1z" fill="#757575" style="fill: rgb(093, 093, 093);"></path></g></svg>